HIERARCHY
ROOT Hips
{
  OFFSET 44.2071 94.0193 122.101
  CHANNELS 6 Xposition Yposition Zposition Zrotation Xrotation Yrotation
  JOINT LeftUpLeg
  {
    OFFSET 8.91 -6.27 -2.145
    CHANNELS 6 Xposition Yposition Zposition Zrotation Xrotation Yrotation
    JOINT LeftUpLegRoll
    {
      OFFSET 0 -22.7323 0
      CHANNELS 6 Xposition Yposition Zposition Zrotation Xrotation Yrotation
      JOINT LeftLeg
      {
        OFFSET 0 -22.1464 0
        CHANNELS 6 Xposition Yposition Zposition Zrotation Xrotation Yrotation
        JOINT LeftLegRoll
        {
          OFFSET 0 -22.0919 0
          CHANNELS 6 Xposition Yposition Zposition Zrotation Xrotation Yrotation
          JOINT LeftFoot
          {
            OFFSET 0 -18.609 0
            CHANNELS 6 Xposition Yposition Zposition Zrotation Xrotation Yrotation
            JOINT LeftToeBase
            {
              OFFSET 0 -6.26232 12.9547
              CHANNELS 6 Xposition Yposition Zposition Zrotation Xrotation Yrotation
              End Site
              {
                OFFSET 0 0 5.96686
              }
            }
          }
        }
      }
    }
  }
  JOINT RightUpLeg
  {
    OFFSET -8.91 -6.27 -2.145
    CHANNELS 6 Xposition Yposition Zposition Zrotation Xrotation Yrotation
    JOINT RightUpLegRoll
    {
      OFFSET 0 -22.7323 0
      CHANNELS 6 Xposition Yposition Zposition Zrotation Xrotation Yrotation
      JOINT RightLeg
      {
        OFFSET 0 -22.1464 0
        CHANNELS 6 Xposition Yposition Zposition Zrotation Xrotation Yrotation
        JOINT RightLegRoll
        {
          OFFSET 0 -22.0919 0
          CHANNELS 6 Xposition Yposition Zposition Zrotation Xrotation Yrotation
          JOINT RightFoot
          {
            OFFSET 0 -18.609 0
            CHANNELS 6 Xposition Yposition Zposition Zrotation Xrotation Yrotation
            JOINT RightToeBase
            {
              OFFSET 0 -6.26232 12.9547
              CHANNELS 6 Xposition Yposition Zposition Zrotation Xrotation Yrotation
              End Site
              {
                OFFSET 0 0.000942417 5.96686
              }
            }
          }
        }
      }
    }
  }
  JOINT Spine
  {
    OFFSET 0 7.43174 -2.06162
    CHANNELS 6 Xposition Yposition Zposition Zrotation Xrotation Yrotation
    JOINT Spine1
    {
      OFFSET -1.68772e-005 12.1899 -1.41951
      CHANNELS 6 Xposition Yposition Zposition Zrotation Xrotation Yrotation
      JOINT Spine2
      {
        OFFSET 0 11.8846 -1.0903
        CHANNELS 6 Xposition Yposition Zposition Zrotation Xrotation Yrotation
        JOINT Spine3
        {
          OFFSET 1.84329e-005 10.5137 1.04001
          CHANNELS 6 Xposition Yposition Zposition Zrotation Xrotation Yrotation
          JOINT Neck
          {
            OFFSET 0 11.5156 1.94702
            CHANNELS 6 Xposition Yposition Zposition Zrotation Xrotation Yrotation
            JOINT Head
            {
              OFFSET -1.26215e-005 11.0733 1.65432
              CHANNELS 6 Xposition Yposition Zposition Zrotation Xrotation Yrotation
              End Site
              {
                OFFSET 0 17.7047 0
              }
            }
          }
          JOINT LeftShoulder
          {
            OFFSET 7 4.56855 2.0674
            CHANNELS 6 Xposition Yposition Zposition Zrotation Xrotation Yrotation
            JOINT LeftArm
            {
              OFFSET 10.7073 0 0
              CHANNELS 6 Xposition Yposition Zposition Zrotation Xrotation Yrotation
              JOINT LeftArmRoll
              {
                OFFSET 15.2612 0 0
                CHANNELS 6 Xposition Yposition Zposition Zrotation Xrotation Yrotation
                JOINT LeftForeArm
                {
                  OFFSET 12.0443 0 0
                  CHANNELS 6 Xposition Yposition Zposition Zrotation Xrotation Yrotation
                  JOINT LeftForeArmRoll
                  {
                    OFFSET 16.3277 0 0
                    CHANNELS 6 Xposition Yposition Zposition Zrotation Xrotation Yrotation
                    JOINT LeftHand
                    {
                      OFFSET 10.3694 0 0
                      CHANNELS 6 Xposition Yposition Zposition Zrotation Xrotation Yrotation
                      JOINT LeftHandThumb1
                      {
                        OFFSET 4.34876 -0.798502 4.28243
                        CHANNELS 6 Xposition Yposition Zposition Zrotation Xrotation Yrotation
                        JOINT LeftHandThumb2
                        {
                          OFFSET 2.51259 -0.536099 0.707454
                          CHANNELS 6 Xposition Yposition Zposition Zrotation Xrotation Yrotation
                          JOINT LeftHandThumb3
                          {
                            OFFSET 2.54314 0 0
                            CHANNELS 6 Xposition Yposition Zposition Zrotation Xrotation Yrotation
                            JOINT LeftHandThumb4
                            {
                              OFFSET 2.66675 0 0
                              CHANNELS 6 Xposition Yposition Zposition Zrotation Xrotation Yrotation
                              End Site
                              {
                                OFFSET 0 0 0
                              }
                            }
                          }
                        }
                      }
                      JOINT LeftHandIndex1
                      {
                        OFFSET 8.82198 0.199729 3.47167
                        CHANNELS 6 Xposition Yposition Zposition Zrotation Xrotation Yrotation
                        JOINT LeftHandIndex2
                        {
                          OFFSET 4.22532 0 -0.000262656
                          CHANNELS 6 Xposition Yposition Zposition Zrotation Xrotation Yrotation
                          JOINT LeftHandIndex3
                          {
                            OFFSET 2.65394 0 -0.00016516
                            CHANNELS 6 Xposition Yposition Zposition Zrotation Xrotation Yrotation
                            JOINT LeftHandIndex4
                            {
                              OFFSET 1.95822 0 -0.00012217
                              CHANNELS 6 Xposition Yposition Zposition Zrotation Xrotation Yrotation
                              End Site
                              {
                                OFFSET 0 0 0
                              }
                            }
                          }
                        }
                      }
                      JOINT LeftHandMiddle1
                      {
                        OFFSET 8.80988 0.50089 1.30468
                        CHANNELS 6 Xposition Yposition Zposition Zrotation Xrotation Yrotation
                        JOINT LeftHandMiddle2
                        {
                          OFFSET 4.86325 0 0
                          CHANNELS 6 Xposition Yposition Zposition Zrotation Xrotation Yrotation
                          JOINT LeftHandMiddle3
                          {
                            OFFSET 2.76524 0 0
                            CHANNELS 6 Xposition Yposition Zposition Zrotation Xrotation Yrotation
                            JOINT LeftHandMiddle4
                            {
                              OFFSET 2.00563 0 0
                              CHANNELS 6 Xposition Yposition Zposition Zrotation Xrotation Yrotation
                              End Site
                              {
                                OFFSET 0 0 0
                              }
                            }
                          }
                        }
                      }
                      JOINT LeftHandRing1
                      {
                        OFFSET 8.89376 0.37992 -0.793159
                        CHANNELS 6 Xposition Yposition Zposition Zrotation Xrotation Yrotation
                        JOINT LeftHandRing2
                        {
                          OFFSET 4.53776 0 -0.000282138
                          CHANNELS 6 Xposition Yposition Zposition Zrotation Xrotation Yrotation
                          JOINT LeftHandRing3
                          {
                            OFFSET 2.30453 0 -0.000143448
                            CHANNELS 6 Xposition Yposition Zposition Zrotation Xrotation Yrotation
                            JOINT LeftHandRing4
                            {
                              OFFSET 1.92335 0 -0.00012044
                              CHANNELS 6 Xposition Yposition Zposition Zrotation Xrotation Yrotation
                              End Site
                              {
                                OFFSET 0 0 0
                              }
                            }
                          }
                        }
                      }
                      JOINT LeftHandPinky1
                      {
                        OFFSET 8.88227 -0.313027 -2.49036
                        CHANNELS 6 Xposition Yposition Zposition Zrotation Xrotation Yrotation
                        JOINT LeftHandPinky2
                        {
                          OFFSET 3.0441 0 0
                          CHANNELS 6 Xposition Yposition Zposition Zrotation Xrotation Yrotation
                          JOINT LeftHandPinky3
                          {
                            OFFSET 1.9745 0 0
                            CHANNELS 6 Xposition Yposition Zposition Zrotation Xrotation Yrotation
                            JOINT LeftHandPinky4
                            {
                              OFFSET 1.66661 0 0
                              CHANNELS 6 Xposition Yposition Zposition Zrotation Xrotation Yrotation
                              End Site
                              {
                                OFFSET 0 0 0
                              }
                            }
                          }
                        }
                      }
                    }
                  }
                }
              }
            }
          }
          JOINT RightShoulder
          {
            OFFSET -7 4.56855 2.0673
            CHANNELS 6 Xposition Yposition Zposition Zrotation Xrotation Yrotation
            JOINT RightArm
            {
              OFFSET -10.7073 0 0
              CHANNELS 6 Xposition Yposition Zposition Zrotation Xrotation Yrotation
              JOINT RightArmRoll
              {
                OFFSET -15.2612 0 0
                CHANNELS 6 Xposition Yposition Zposition Zrotation Xrotation Yrotation
                JOINT RightForeArm
                {
                  OFFSET -12.0444 0 0
                  CHANNELS 6 Xposition Yposition Zposition Zrotation Xrotation Yrotation
                  JOINT RightForeArmRoll
                  {
                    OFFSET -16.3276 0 0
                    CHANNELS 6 Xposition Yposition Zposition Zrotation Xrotation Yrotation
                    JOINT RightHand
                    {
                      OFFSET -10.3694 0 0
                      CHANNELS 6 Xposition Yposition Zposition Zrotation Xrotation Yrotation
                      JOINT RightHandThumb1
                      {
                        OFFSET -4.34838 -0.798501 4.28282
                        CHANNELS 6 Xposition Yposition Zposition Zrotation Xrotation Yrotation
                        JOINT RightHandThumb2
                        {
                          OFFSET -2.51253 -0.536099 0.707679
                          CHANNELS 6 Xposition Yposition Zposition Zrotation Xrotation Yrotation
                          JOINT RightHandThumb3
                          {
                            OFFSET -2.54159 0 0.0888232
                            CHANNELS 6 Xposition Yposition Zposition Zrotation Xrotation Yrotation
                            JOINT RightHandThumb4
                            {
                              OFFSET -2.66512 0 0.0931403
                              CHANNELS 6 Xposition Yposition Zposition Zrotation Xrotation Yrotation
                              End Site
                              {
                                OFFSET 0 0 0
                              }
                            }
                          }
                        }
                      }
                      JOINT RightHandIndex1
                      {
                        OFFSET -8.82167 0.199732 3.47246
                        CHANNELS 6 Xposition Yposition Zposition Zrotation Xrotation Yrotation
                        JOINT RightHandIndex2
                        {
                          OFFSET -4.22532 0 0.0001146
                          CHANNELS 6 Xposition Yposition Zposition Zrotation Xrotation Yrotation
                          JOINT RightHandIndex3
                          {
                            OFFSET -2.65394 0 7.19601e-005
                            CHANNELS 6 Xposition Yposition Zposition Zrotation Xrotation Yrotation
                            JOINT RightHandIndex4
                            {
                              OFFSET -1.95822 0 5.30956e-005
                              CHANNELS 6 Xposition Yposition Zposition Zrotation Xrotation Yrotation
                              End Site
                              {
                                OFFSET 0 0 0
                              }
                            }
                          }
                        }
                      }
                      JOINT RightHandMiddle1
                      {
                        OFFSET -8.80976 0.500893 1.30547
                        CHANNELS 6 Xposition Yposition Zposition Zrotation Xrotation Yrotation
                        JOINT RightHandMiddle2
                        {
                          OFFSET -4.86325 0 0.000131881
                          CHANNELS 6 Xposition Yposition Zposition Zrotation Xrotation Yrotation
                          JOINT RightHandMiddle3
                          {
                            OFFSET -2.76524 0 7.49854e-005
                            CHANNELS 6 Xposition Yposition Zposition Zrotation Xrotation Yrotation
                            JOINT RightHandMiddle4
                            {
                              OFFSET -2.00563 0 5.43888e-005
                              CHANNELS 6 Xposition Yposition Zposition Zrotation Xrotation Yrotation
                              End Site
                              {
                                OFFSET 0 0 0
                              }
                            }
                          }
                        }
                      }
                      JOINT RightHandRing1
                      {
                        OFFSET -8.89383 0.379922 -0.792364
                        CHANNELS 6 Xposition Yposition Zposition Zrotation Xrotation Yrotation
                        JOINT RightHandRing2
                        {
                          OFFSET -4.53776 0 0.000123049
                          CHANNELS 6 Xposition Yposition Zposition Zrotation Xrotation Yrotation
                          JOINT RightHandRing3
                          {
                            OFFSET -2.30453 0 6.24859e-005
                            CHANNELS 6 Xposition Yposition Zposition Zrotation Xrotation Yrotation
                            JOINT RightHandRing4
                            {
                              OFFSET -1.92335 0 5.21537e-005
                              CHANNELS 6 Xposition Yposition Zposition Zrotation Xrotation Yrotation
                              End Site
                              {
                                OFFSET 0 0 0
                              }
                            }
                          }
                        }
                      }
                      JOINT RightHandPinky1
                      {
                        OFFSET -8.8825 -0.313025 -2.48956
                        CHANNELS 6 Xposition Yposition Zposition Zrotation Xrotation Yrotation
                        JOINT RightHandPinky2
                        {
                          OFFSET -3.0478 0 8.26466e-005
                          CHANNELS 6 Xposition Yposition Zposition Zrotation Xrotation Yrotation
                          JOINT RightHandPinky3
                          {
                            OFFSET -1.9769 0 5.36145e-005
                            CHANNELS 6 Xposition Yposition Zposition Zrotation Xrotation Yrotation
                            JOINT RightHandPinky4
                            {
                              OFFSET -1.66864 0 4.5245e-005
                              CHANNELS 6 Xposition Yposition Zposition Zrotation Xrotation Yrotation
                              End Site
                              {
                                OFFSET 0 0 0
                              }
                            }
                          }
                        }
                      }
                    }
                  }
                }
              }
            }
          }
        }
      }
    }
  }
}
MOTION
Frames:	2
Frame Time:	0.0333333
-27.3109 97.6295 33.6855 -0.863013 1.52179 -8.67834 8.91 -6.27 -2.145 1.72866 -10.2981 0.959522 -8.88178e-015 -22.7323 -4.71169e-007 2.09744e-020 1.21314e-017 -0.198121 -1.24345e-014 -22.1464 5.17666e-008 4.04172e-008 27.8082 3.28883 -8.88178e-015 -22.0919 1.36431e-008 1.28278e-017 -2.9974e-016 4.9011 -1.42109e-014 -18.609 1.69696e-008 -3.3207 -16.5968 -0.484475 5.32907e-015 -6.26232 12.9547 -4.29059e-007 -1.04696e-007 -7.84018e-016 -8.91 -6.27 -2.145 -1.64868 -12.1406 0.76071 -2.71633e-006 -22.7323 -4.51374e-007 4.16553e-018 -1.70912e-016 2.79231 -4.24549e-013 -22.1464 1.4554e-008 -2.64191e-007 26.166 4.9992 9.19562e-007 -22.0919 4.09714e-008 2.96292e-017 -4.54996e-016 7.45164 -3.606e-013 -18.609 -7.98564e-010 -0.00857825 -13.943 -0.00565123 -6.4416e-011 -6.26232 12.9547 0.00291259 9.13911e-008 -4.6458e-012 2.32301e-006 7.43174 -2.06162 -0.442078 0.140588 0.30054 -1.68772e-005 12.1899 -1.41951 -0.531463 0.231602 0.46444 -3.87879e-006 11.8846 -1.0903 -0.531453 0.231131 0.464687 1.84329e-005 10.5137 1.04001 -0.531448 0.230657 0.464928 2.32301e-006 11.5156 1.94702 -1.88839 8.65601 0.695158 -1.26215e-005 11.0733 1.65432 -3.03403 0.892212 1.08943 7 4.56855 2.0674 -9.25119 0 2.54036 10.7073 -5.08749e-012 -5.32907e-015 -60.1574 20.8445 -1.59271 15.2612 3.95062e-012 1.16365e-008 -0 47.88 0 12.0443 -1.25056e-012 2.87898e-009 4.28032 9.38283 -24.6592 16.3277 2.84217e-012 -1.18649e-008 -0 15.4593 0 10.3694 3.12639e-013 2.29894e-008 5.24753 -0.0405607 -0.885098 4.34876 -0.798502 4.28243 -3.74468 -0.100483 -5.34865 2.51259 -0.536099 0.707454 0.688062 0.0240271 1.99986 2.54314 9.9476e-013 9.34198e-006 1.69587 0 0 2.66675 -1.27898e-012 -8.21025e-006 -0 0 0 8.82198 0.199729 3.47167 -15.9672 -0.55038 0.616424 4.22532 4.83737e-011 -0.000262656 -15.9778 0 0 2.65394 2.98712e-011 -0.00016516 -15.9793 0 0 1.95822 2.2311e-011 -0.00012217 -0 0 0 8.80988 0.50089 1.30468 -27.9887 -0.938892 2.40401 4.86325 1.10845e-012 6.11217e-012 -28.0057 0 0 2.76524 3.69482e-013 -1.91784e-007 -28.003 0 0 2.00563 -8.52651e-013 -1.13863e-006 -0 0 0 8.89376 0.37992 -0.793159 -39.9859 -1.28551 1.9017 4.53776 8.2423e-013 -0.000282138 -40.002 0 0 2.30453 0 -0.000143448 -40.0006 0 0 1.92335 -4.26326e-013 -0.00012044 -0 0 0 8.88227 -0.313027 -2.49036 -47.9657 -1.48576 1.02711 3.0441 -2.04636e-012 1.33227e-015 -47.9704 0 0 1.9745 2.84217e-013 -1.43329e-007 -47.9933 0 0 1.66661 1.64846e-012 7.91347e-007 -0 0 0 -7 4.56855 2.0673 6.43912 -1.99897e-017 0.197876 -10.7073 5.20117e-012 2.04281e-014 52.2358 25.3649 7.47811 -15.2612 -6.33804e-012 1.86659e-008 4.8486e-015 55.6585 4.8486e-015 -12.0444 -8.46967e-012 -7.98782e-009 -10.7207 11.0349 44.6867 -16.3276 -1.11982e-011 -2.36264e-008 -6.31383e-006 23.0044 -2.94281e-006 -10.3694 -8.52651e-014 1.64166e-008 -9.89757 0.545615 -6.29492 -4.34838 -0.798501 4.28282 3.74491 -0.100338 5.34924 -2.51253 -0.536099 0.707679 -0.685636 0.0239424 -1.99986 -2.54159 2.76827e-011 0.0888232 -1.60632 0 0 -2.66512 1.86731e-011 0.0931403 0 0 -0 -8.82167 0.199732 3.47246 15.9669 -0.550369 -0.616417 -4.22532 2.47269e-012 0.0001146 15.9778 0 0 -2.65394 1.39266e-012 7.19601e-005 15.9793 0 0 -1.95822 1.36424e-012 5.30956e-005 0 0 -0 -8.80976 0.500893 1.30547 27.9567 -0.937906 -0.408712 -4.86325 -1.3074e-012 0.000131881 27.9586 0 0 -2.76524 1.76215e-012 7.49854e-005 27.9429 0 0 -2.00563 0 5.43888e-005 0 0 -0 -8.89383 0.379922 -0.792364 39.9542 -1.28466 0.0932706 -4.53776 4.09273e-012 0.000123049 39.9415 0 0 -2.30453 4.12115e-012 6.24859e-005 39.9253 0 0 -1.92335 7.38964e-013 5.21537e-005 0 0 -0 -8.8825 -0.313025 -2.48956 47.914 -1.48455 0.970617 -3.0478 -6.65921e-011 8.26466e-005 47.8656 0 0 -1.9769 -3.85683e-011 5.36145e-005 47.8954 0 0 -1.66864 -3.54419e-011 4.5245e-005 0 0 -0 
-27.0592 97.6277 33.6804 -0.69708 1.52968 -9.30498 8.91 -6.27 -2.145 1.27326 -10.2206 0.687145 -8.88178e-015 -22.7323 -4.71169e-007 1.94089e-020 1.16699e-017 -0.190584 -1.24345e-014 -22.1464 5.17666e-008 1.29903e-008 27.6724 3.65851 -8.88178e-015 -22.0919 1.36431e-008 1.58735e-017 -3.33358e-016 5.45238 -1.42109e-014 -18.609 1.69696e-008 -3.34767 -16.5557 -0.487186 5.32907e-015 -6.26232 12.9547 -4.29059e-007 -1.04696e-007 -7.84018e-016 -8.91 -6.27 -2.145 -2.05327 -12.3334 0.530452 -2.71633e-006 -22.7323 -4.51374e-007 4.26514e-018 -1.72942e-016 2.82551 -4.24549e-013 -22.1464 1.4554e-008 -1.67217e-007 26.2281 5.33585 9.19562e-007 -22.0919 4.09714e-008 3.37521e-017 -4.85479e-016 7.95399 -3.606e-013 -18.609 -7.98564e-010 0.00893707 -13.891 -0.00351262 -6.4416e-011 -6.26232 12.9547 0.00291259 9.13911e-008 -4.6458e-012 2.32301e-006 7.43174 -2.06162 -0.565431 0.121818 0.353982 -1.68772e-005 12.1899 -1.41951 -0.678477 0.193233 0.547016 -3.87879e-006 11.8846 -1.0903 -0.678496 0.192555 0.547231 1.84329e-005 10.5137 1.04001 -0.678522 0.191873 0.547435 2.32301e-006 11.5156 1.94702 -2.07849 8.68192 0.710496 -1.26215e-005 11.0733 1.65432 -3.32258 0.757938 1.10914 7 4.56855 2.0674 -9.009 0 2.53192 10.7073 -5.08749e-012 -5.32907e-015 -57.1388 21.492 0.281179 15.2612 3.95062e-012 1.16365e-008 -0 51.0458 0 12.0443 -1.25056e-012 2.87898e-009 5.67137 9.39512 -31.3144 16.3277 2.84217e-012 -1.18649e-008 -0 16.4431 0 10.3694 3.12639e-013 2.29894e-008 8.48226 0.114423 1.54288 4.34876 -0.798502 4.28243 -3.74468 -0.100483 -5.34865 2.51259 -0.536099 0.707454 0.688062 0.0240271 1.99986 2.54314 9.9476e-013 9.34198e-006 1.69587 0 0 2.66675 -1.27898e-012 -8.21025e-006 -0 0 0 8.82198 0.199729 3.47167 -15.9672 -0.55038 0.61747 4.22532 4.83737e-011 -0.000262656 -15.9778 0 0 2.65394 2.98712e-011 -0.00016516 -15.9793 0 0 1.95822 2.2311e-011 -0.00012217 -0 0 0 8.80988 0.50089 1.30468 -27.9887 -0.938892 2.40391 4.86325 1.10845e-012 6.11217e-012 -28.0057 0 0 2.76524 3.69482e-013 -1.91784e-007 -28.003 0 0 2.00563 -8.52651e-013 -1.13863e-006 -0 0 0 8.89376 0.37992 -0.793159 -39.9859 -1.28551 1.90163 4.53776 8.2423e-013 -0.000282138 -40.002 0 0 2.30453 0 -0.000143448 -40.0006 0 0 1.92335 -4.26326e-013 -0.00012044 -0 0 0 8.88227 -0.313027 -2.49036 -47.9657 -1.48576 1.02614 3.0441 -2.04636e-012 1.33227e-015 -47.9704 0 0 1.9745 2.84217e-013 -1.43329e-007 -47.9933 0 0 1.66661 1.64846e-012 7.91347e-007 -0 0 0 -7 4.56855 2.0673 5.9283 -1.01673e-017 0.222966 -10.7073 5.20117e-012 2.04281e-014 50.7177 24.352 5.8679 -15.2612 -6.33804e-012 1.86659e-008 4.84105e-015 55.5459 4.84104e-015 -12.0444 -8.46967e-012 -7.98782e-009 -12.7837 11.1762 49.4942 -16.3276 -1.11982e-011 -2.36264e-008 -6.17921e-006 25.3732 -2.99798e-006 -10.3694 -8.52651e-014 1.64166e-008 -8.21503 0.455387 -6.33481 -4.34838 -0.798501 4.28282 3.74491 -0.100338 5.34924 -2.51253 -0.536099 0.707679 -0.685636 0.0239424 -1.99986 -2.54159 2.76827e-011 0.0888232 -1.60632 0 0 -2.66512 1.86731e-011 0.0931403 0 0 -0 -8.82167 0.199732 3.47246 15.9669 -0.550369 -0.617464 -4.22532 2.47269e-012 0.0001146 15.9778 0 0 -2.65394 1.39266e-012 7.19601e-005 15.9793 0 0 -1.95822 1.36424e-012 5.30956e-005 0 0 -0 -8.80976 0.500893 1.30547 27.9567 -0.937906 -0.40861 -4.86325 -1.3074e-012 0.000131881 27.9586 0 0 -2.76524 1.76215e-012 7.49854e-005 27.9429 0 0 -2.00563 0 5.43888e-005 0 0 -0 -8.89383 0.379922 -0.792364 39.9542 -1.28466 0.0933402 -4.53776 4.09273e-012 0.000123049 39.9415 0 0 -2.30453 4.12115e-012 6.24859e-005 39.9253 0 0 -1.92335 7.38964e-013 5.21537e-005 0 0 -0 -8.8825 -0.313025 -2.48956 47.914 -1.48455 0.971582 -3.0478 -6.65921e-011 8.26466e-005 47.8656 0 0 -1.9769 -3.85683e-011 5.36145e-005 47.8954 0 0 -1.66864 -3.54419e-011 4.5245e-005 0 0 -0 
